<svg fill="none" height="40" viewBox="0 0 40 40" width="40" xmlns="http://www.w3.org/2000/svg"><path d="m31.624 15.6377c-.0862-.9957-.5438-1.9226-1.2819-2.5965-.7381-.674-1.7026-1.0456-2.7021-1.0412h-1.64v-2c0-1.5913-.6321-3.11742-1.7573-4.24264-1.1253-1.12522-2.6514-1.75736-4.2427-1.75736s-3.1174.63214-4.2426 1.75736-1.7574 2.65134-1.7574 4.24264v2h-1.64c-.9995-.0044-1.9641.3673-2.70223 1.0413-.73809.6741-1.19564 1.6011-1.28174 2.5969l-1.3555 14.9092c-.0629.692.01912 1.3894.24081 2.0479s.57818 1.2636 1.04675 1.7766c.46857.5131 1.03892.9228 1.67467 1.2031.63574.2803 1.32294.4251 2.01774.425h15.9995c.6948.0001 1.382-.1447 2.0178-.425.6357-.2803 1.2061-.69 1.6747-1.2031.4685-.513.825-1.1181 1.0467-1.7766s.3037-1.3559.2408-2.0479zm-15.624-5.6377c0-1.06087.4215-2.07828 1.1716-2.82843.7501-.75014 1.7676-1.17157 2.8284-1.17157 1.0609 0 2.0783.42143 2.8285 1.17157.7501.75015 1.1715 1.76756 1.1715 2.82843v2h-8zm14.2148 23.0229c-.2797.3094-.6216.5563-1.0032.7247-.3816.1683-.7945.2543-1.2116.2524h-15.9995c-.4169 0-.8292-.0869-1.2107-.2551-.3814-.1682-.7237-.4141-1.00478-.722-.28112-.3078-.49499-.6709-.62797-1.0661-.13297-.3951-.18212-.8136-.14432-1.2288l1.35547-14.9087c.043-.4979.2717-.9615.6407-1.2985.3691-.3371.8514-.523 1.3511-.5208h15.28c.4997-.0023.982.1835 1.351.5205s.5977.8004.6407 1.2983l1.3556 14.9092c.0401.4153-.0081.8345-.1412 1.2299-.1331.3955-.3482.7584-.6313 1.065zm-4.2148-16.0229c0 1.5913-.6321 3.1174-1.7573 4.2426-1.1253 1.1253-2.6514 1.7574-4.2427 1.7574s-3.1174-.6321-4.2426-1.7574c-1.1252-1.1252-1.7574-2.6513-1.7574-4.2426 0-.2652.1054-.5196.2929-.7071.1876-.1875.4419-.2929.7071-.2929s.5196.1054.7071.2929c.1876.1875.2929.4419.2929.7071 0 1.0609.4215 2.0783 1.1716 2.8284.7501.7502 1.7676 1.1716 2.8284 1.1716 1.0609 0 2.0783-.4214 2.8285-1.1716.7501-.7501 1.1715-1.7675 1.1715-2.8284 0-.2652.1054-.5196.2929-.7071.1876-.1875.4419-.2929.7071-.2929s.5196.1054.7071.2929c.1876.1875.2929.4419.2929.7071z" fill="#222"/></svg>