<svg fill="none" height="33" viewBox="0 0 105 33" width="105" xmlns="http://www.w3.org/2000/svg"><g fill="#363636"><path d="m5.986 17.9279c.08171.67.35951 1.2011.8334 1.5933.49024.3922 1.2501.6863 2.2796.8824 1.0295.1798 2.4267.2697 4.1915.2697 1.6995 0 2.9823-.0654 3.8484-.1961.866-.1471 1.4462-.3595 1.7403-.6373.2941-.2942.4412-.6945.4412-1.2011 0-.4576-.1552-.7926-.4657-1.005-.2942-.2288-.8824-.4004-1.7649-.5148-.8824-.1307-2.3776-.2778-4.4856-.4412-2.3205-.1634-4.10983-.3595-5.3681-.5882-1.24193-.2452-2.19789-.6374-2.86788-1.1766-.66999-.5556-1.00498-1.3645-1.00498-2.4267 0-1.6504.82523-2.81066 2.47569-3.48065s3.92189-1.00498 6.81427-1.00498c2.9251 0 5.1965.32682 6.8143.98047 1.6341.65364 2.5247 1.87106 2.6718 3.65226h-3.3091c-.0654-.5556-.3268-.9805-.7844-1.2746-.4412-.2942-1.1112-.4984-2.01-.6128-.8987-.1144-2.1407-.1716-3.7258-.1716-2.0916 0-3.55417.1471-4.38757.4412-.8334.2942-1.2501.719-1.2501 1.2746 0 .3759.15524.6618.46573.8579.31048.1961.90693.3677 1.78936.5148.88242.1307 2.29598.2778 4.24058.4412l1.103.098c2.0917.1798 3.6768.3759 4.7553.5883 1.0785.1961 1.9446.5801 2.5982 1.1521.67.5719 1.005 1.4217 1.005 2.5492 0 1.7975-.7599 3.0476-2.2796 3.7503-1.5197.6863-3.7911 1.0295-6.8143 1.0295-2.1407 0-3.98722-.1389-5.53963-.4167-1.53607-.2778-2.79435-.8089-3.77482-1.5933-.96413-.7843-1.47887-1.8955-1.54424-3.3336z"/><path d="m41.3046 11.1627h-7.28v5.5151c0 1.0949.0899 1.912.2696 2.4512.1798.5229.5148.8906 1.005 1.103.4903.2125 1.242.3187 2.2551.3187.9968 0 2.2469-.098 3.7503-.2941v2.6227c-1.7322.2615-3.211.3922-4.4366.3922-1.5361 0-2.729-.1879-3.5787-.5638-.8334-.3758-1.4299-1.0131-1.7894-1.9119-.3595-.9151-.5393-2.206-.5393-3.8728v-5.7603h-4.265v-2.6718h4.265v-3.3336l3.064-1.0295v4.3631h7.28z"/><path d="m64.3698 8.4909h3.4317l-8.7752 15.614c-.6374 1.1602-1.2665 2.0999-1.8875 2.8189-.6209.719-1.3399 1.2664-2.157 1.6423-.8171.3921-1.7894.5882-2.9169.5882-.8497 0-1.6178-.0408-2.3041-.1225s-1.4789-.2043-2.3776-.3677v-2.6718c1.487.3105 2.8597.4657 4.1179.4657 1.0295 0 1.8793-.2287 2.5493-.6863.6699-.4575 1.3318-1.2746 1.9854-2.4512l.2942-.5392h-1.7404l-8.0644-14.2904h3.5052l7.182 12.7216z"/><path d="m72.8243 22.7813v-19.60946h3.064v19.60946z"/><path d="m91.9502 23.2715c-3.0722 0-5.5234-.6455-7.3536-1.9364-1.8138-1.291-2.7208-3.1866-2.7208-5.6868s.907-4.3957 2.7208-5.68669c1.8302-1.3073 4.2814-1.96094 7.3536-1.96094 3.0721 0 5.5151.65364 7.329 1.96094 1.8138 1.29099 2.7208 3.18649 2.7208 5.68669s-.907 4.3958-2.7208 5.6868c-1.8139 1.2909-4.2569 1.9364-7.329 1.9364zm0-2.6963c2.206 0 3.881-.4085 5.0249-1.2256 1.1439-.8334 1.7158-2.0671 1.7158-3.7013 0-1.6504-.5719-2.8842-1.7158-3.7012-1.1439-.8334-2.8189-1.2501-5.0249-1.2501-2.2224 0-3.9056.4167-5.0495 1.2501-1.1438.817-1.7158 2.0508-1.7158 3.7012 0 1.6505.572 2.8843 1.7158 3.7013 1.1439.8171 2.8271 1.2256 5.0495 1.2256zm-5.1965-14.95218v-2.45118h3.9954v2.45118zm6.373 0v-2.45118h3.9955v2.45118z"/></g></svg>